<svg width="24" height="23" viewBox="0 0 24 23" fill="none" xmlns="http://www.w3.org/2000/svg">
<path fill-rule="evenodd" clip-rule="evenodd" d="M3.68748 1.38326C5.1077 -0.0288971 7.44614 0.222467 8.63534 1.81098L10.1065 3.77612C11.0741 5.06865 10.9887 6.87513 9.84014 8.0172L9.56157 8.29418C9.54941 8.32952 9.5199 8.4406 9.55265 8.65171C9.6264 9.12712 10.0234 10.1356 11.69 11.7927C13.356 13.4493 14.3717 13.8459 14.8538 13.9198C15.0723 13.9534 15.1866 13.9221 15.222 13.9098L15.698 13.4365C16.7191 12.4212 18.2881 12.2314 19.5523 12.9187L21.7812 14.1303C23.6898 15.1679 24.172 17.7622 22.6083 19.317L20.951 20.9649C20.4288 21.4841 19.7266 21.9171 18.8696 21.997C16.7591 22.1937 11.8378 21.9427 6.66704 16.8012C1.83947 12.0011 0.913068 7.81509 0.795854 5.75263L1.66944 5.70298L0.795854 5.75263C0.736586 4.70973 1.22941 3.82738 1.85628 3.20406L3.68748 1.38326ZM7.23441 2.85975C6.64335 2.07021 5.54169 2.00744 4.92139 2.62421L3.09019 4.44502C2.70528 4.82774 2.52009 5.24953 2.54304 5.65333C2.63617 7.29203 3.38435 11.0693 7.90095 15.5603C12.6393 20.2717 17.0157 20.4122 18.7072 20.2546C19.0528 20.2223 19.3965 20.0428 19.7171 19.724L21.3744 18.0761C22.0481 17.4062 21.8995 16.1865 20.9454 15.6678L18.7165 14.4562C18.101 14.1216 17.3799 14.232 16.9319 14.6774L16.4005 15.2058L15.7836 14.5853C16.4005 15.2058 16.3997 15.2066 16.3989 15.2074L16.3971 15.2091L16.3936 15.2126L16.386 15.2199L16.3689 15.2358C16.3567 15.247 16.3426 15.2592 16.3268 15.2724C16.2951 15.2986 16.2561 15.3283 16.2095 15.3595C16.1161 15.4221 15.9928 15.4902 15.8378 15.5479C15.5218 15.6656 15.1051 15.7289 14.5885 15.6496C13.5772 15.4945 12.2376 14.8051 10.4561 13.0337C8.6752 11.2629 7.97995 9.92949 7.82334 8.91999C7.74325 8.4038 7.80713 7.98695 7.92628 7.67072C7.98467 7.51573 8.05348 7.39251 8.11664 7.2993C8.14813 7.25281 8.17811 7.21395 8.20456 7.18239C8.21778 7.1666 8.23014 7.15262 8.24139 7.14041L8.25741 7.12339L8.26475 7.11586L8.26824 7.11233L8.26994 7.11062C8.27078 7.10979 8.27161 7.10896 8.88856 7.72944L8.27161 7.10896L8.60623 6.77624C9.10626 6.27905 9.1763 5.45369 8.70556 4.82489L7.23441 2.85975Z" fill="#7878A3"/>
</svg>
