<svg width="20" height="20" viewBox="0 0 20 20" fill="none" xmlns="http://www.w3.org/2000/svg">
<path fill-rule="evenodd" clip-rule="evenodd" d="M15.1204 3.02553C14.1454 3.19897 12.831 3.63535 10.9862 4.25026L6.81016 5.64228C5.32681 6.13674 4.2524 6.49541 3.49354 6.81817C2.70015 7.15561 2.41791 7.39083 2.32625 7.5485C2.04391 8.03416 2.04391 8.63397 2.32625 9.11962C2.41791 9.27729 2.70015 9.51251 3.49353 9.84995C4.2524 10.1727 5.32681 10.5314 6.81016 11.0258C6.83358 11.0336 6.85671 11.0413 6.87955 11.0489C7.2847 11.1837 7.59966 11.2885 7.87061 11.4699C8.13165 11.6446 8.35589 11.8688 8.53064 12.1299C8.71202 12.4008 8.81679 12.7158 8.95155 13.1209C8.95915 13.1438 8.96684 13.1669 8.97465 13.1903C9.4691 14.6737 9.82777 15.7481 10.1505 16.507C10.488 17.3003 10.7232 17.5826 10.8809 17.6742C11.3665 17.9566 11.9663 17.9566 12.452 17.6742C12.6097 17.5826 12.8449 17.3003 13.1823 16.507C13.5051 15.7481 13.8638 14.6737 14.3582 13.1903L15.7502 9.01427C16.3651 7.16953 16.8015 5.85506 16.975 4.88008C17.1492 3.90046 17.0161 3.48433 16.7661 3.23439C16.5162 2.98444 16.1 2.85126 15.1204 3.02553ZM14.8961 1.76481C15.9813 1.57177 16.9586 1.61601 17.6716 2.32893C18.3845 3.04184 18.4287 4.01919 18.2357 5.10435C18.0438 6.18296 17.5759 7.58663 16.9835 9.36375L15.5627 13.6261C15.0807 15.0722 14.7061 16.196 14.3607 17.0081C14.0275 17.7915 13.6575 18.4546 13.0956 18.7813C12.212 19.2949 11.1208 19.2949 10.2373 18.7813C9.67534 18.4546 9.30537 17.7915 8.97218 17.0081C8.62675 16.196 8.25219 15.0723 7.77013 13.6261L7.75986 13.5953C7.59097 13.0886 7.53949 12.9512 7.46656 12.8422C7.38493 12.7203 7.28019 12.6156 7.15826 12.5339C7.04932 12.461 6.91189 12.4095 6.40523 12.2406L6.37436 12.2303C4.9282 11.7483 3.80451 11.3737 2.99236 11.0283C2.20895 10.6951 1.54591 10.3251 1.21922 9.76319C0.705574 8.87967 0.705574 7.78846 1.21922 6.90493C1.54591 6.34298 2.20895 5.97301 2.99236 5.63981C3.80452 5.29438 4.92823 4.91982 6.37441 4.43776L10.6368 3.01698C12.4139 2.42459 13.8175 1.95669 14.8961 1.76481ZM14.7346 5.27094C14.9832 5.52235 14.981 5.92773 14.7296 6.17638L11.3149 9.55343C11.0634 9.80208 10.6581 9.79983 10.4094 9.54842C10.1608 9.297 10.163 8.89162 10.4144 8.64297L13.8291 5.26592C14.0805 5.01727 14.4859 5.01952 14.7346 5.27094Z" fill="black"/>
</svg>
