<svg width="20" height="20" viewBox="0 0 20 20" fill="none" xmlns="http://www.w3.org/2000/svg">
<path fill-rule="evenodd" clip-rule="evenodd" d="M4.26389 6.45975C4.6083 6.43679 4.90612 6.69738 4.92908 7.04179L5.31236 12.7911C5.38724 13.9143 5.4406 14.6958 5.55774 15.2838C5.67136 15.8542 5.82998 16.1561 6.05782 16.3692C6.28566 16.5824 6.59746 16.7206 7.17413 16.796C7.76863 16.8738 8.55197 16.875 9.67767 16.875H10.3221C11.4478 16.875 12.2312 16.8738 12.8257 16.796C13.4024 16.7206 13.7142 16.5824 13.942 16.3692C14.1698 16.1561 14.3284 15.8542 14.4421 15.2838C14.5592 14.6958 14.6126 13.9143 14.6875 12.7911L15.0707 7.04179C15.0937 6.69738 15.3915 6.43679 15.7359 6.45975C16.0803 6.48271 16.3409 6.78053 16.318 7.12494L15.9318 12.9181C15.8605 13.987 15.803 14.8505 15.668 15.528C15.5277 16.2324 15.289 16.8208 14.796 17.2821C14.303 17.7433 13.7 17.9423 12.9878 18.0355C12.3028 18.1251 11.4374 18.125 10.3661 18.125H9.63373C8.5624 18.125 7.69703 18.1251 7.012 18.0355C6.29979 17.9423 5.69684 17.7433 5.20384 17.2821C4.71084 16.8208 4.47216 16.2324 4.33183 15.528C4.19685 14.8505 4.1393 13.987 4.06805 12.9181L3.68185 7.12494C3.65889 6.78053 3.91948 6.48271 4.26389 6.45975Z" fill="#FF5050"/>
<path fill-rule="evenodd" clip-rule="evenodd" d="M8.62929 1.87503L8.59097 1.87502C8.41065 1.8749 8.25354 1.8748 8.10519 1.89849C7.51911 1.99208 7.01195 2.35762 6.73782 2.88403C6.66844 3.01728 6.61885 3.16636 6.56194 3.33747L6.54984 3.37382L6.46893 3.61654C6.45311 3.66401 6.44869 3.67709 6.44486 3.6877C6.29892 4.09113 5.92057 4.36383 5.4917 4.3747C5.48042 4.37498 5.46661 4.37503 5.41657 4.37503H2.9165C2.57133 4.37503 2.2915 4.65485 2.2915 5.00003C2.2915 5.34521 2.57133 5.62503 2.9165 5.62503L5.42371 5.62503L5.43766 5.62503H14.5622L14.5761 5.62503L17.0832 5.62503C17.4284 5.62503 17.7082 5.34521 17.7082 5.00003C17.7082 4.65485 17.4284 4.37503 17.0832 4.37503H14.5832C14.5332 4.37503 14.5194 4.37498 14.5081 4.3747C14.0792 4.36383 13.7009 4.09111 13.5549 3.68768C13.5511 3.67715 13.5466 3.66378 13.5309 3.61654L13.45 3.37382L13.4379 3.33745C13.381 3.16634 13.3314 3.01727 13.262 2.88403C12.9879 2.35762 12.4807 1.99208 11.8946 1.89849C11.7463 1.8748 11.5892 1.8749 11.4088 1.87502L11.3705 1.87503H8.62929ZM7.62032 4.1129C7.58759 4.20337 7.54955 4.29085 7.50663 4.37503H12.4932C12.4503 4.29085 12.4122 4.20338 12.3795 4.11292L12.3472 4.01846L12.2641 3.7691C12.1881 3.54117 12.1707 3.49469 12.1533 3.46137C12.0619 3.2859 11.8929 3.16405 11.6975 3.13285C11.6604 3.12693 11.6108 3.12503 11.3705 3.12503H8.62929C8.38903 3.12503 8.33941 3.12693 8.3023 3.13285C8.10694 3.16405 7.93789 3.2859 7.84651 3.46137C7.82916 3.49469 7.81167 3.54118 7.73569 3.7691L7.65252 4.01861C7.64 4.05619 7.63025 4.08543 7.62032 4.1129Z" fill="#FF5050"/>
</svg>
